<svg xmlns="http://www.w3.org/2000/svg" viewBox="0 0 2215 2228" height="16" width="16" version="1.0">
  <path d="M2167.76 981.47a907.5 901.81 0 11-1815 0 907.5 901.81 0 111815 0z" transform="matrix(1.20052 0 0 1.20054 -398.5 -70.63)" fill="#fffc24" stroke="#000" stroke-width="41.65"/>
  <path d="M861.46 761.64a232.64 292.31 0 11-465.27 0 232.64 292.31 0 11465.27 0z"/>
  <path d="M353.08 1392.12s409.7 204.9 797.9 206.68c388.2 1.79 728.6-173.25 728.6-173.25s-344.95 324.6-733.15 322.82c-388.2-1.79-793.35-356.25-793.35-356.25z" fill-rule="evenodd"/>
  <path d="M1872.24 761.64a232.64 292.31 0 11-465.27 0 232.64 292.31 0 11465.27 0z"/>
</svg>
